<svg xmlns="http://www.w3.org/2000/svg" width="14.239" height="17.6" viewBox="0 0 14.239 17.6"><defs><style>.a{fill:#fff;}</style></defs><g transform="translate(0.003 0.002)"><path class="a" d="M222.809,154.7a.411.411,0,0,0-.411.411v7.76a.411.411,0,0,0,.821,0v-7.76A.411.411,0,0,0,222.809,154.7Zm0,0" transform="translate(-213.27 -148.285)"/><path class="a" d="M104.809,154.7a.411.411,0,0,0-.411.411v7.76a.411.411,0,0,0,.821,0v-7.76A.411.411,0,0,0,104.809,154.7Zm0,0" transform="translate(-100.115 -148.285)"/><path class="a" d="M1.163,5.238V15.393a2.279,2.279,0,0,0,.6,1.568,2.018,2.018,0,0,0,1.467.637H11a2.018,2.018,0,0,0,1.467-.637,2.279,2.279,0,0,0,.6-1.568V5.238a1.575,1.575,0,0,0-.4-3.1h-2.1V1.627A1.616,1.616,0,0,0,8.939,0H5.293A1.616,1.616,0,0,0,3.667,1.627v.515h-2.1a1.575,1.575,0,0,0-.4,3.1ZM11,16.774H3.232a1.3,1.3,0,0,1-1.248-1.381V5.274H12.249V15.393A1.3,1.3,0,0,1,11,16.774ZM4.489,1.627a.793.793,0,0,1,.8-.8H8.939a.793.793,0,0,1,.8.8v.515H4.489ZM1.565,2.966h11.1a.742.742,0,0,1,0,1.484H1.565a.742.742,0,0,1,0-1.484Zm0,0" transform="translate(0 0)"/><path class="a" d="M163.809,154.7a.411.411,0,0,0-.411.411v7.76a.411.411,0,0,0,.821,0v-7.76A.411.411,0,0,0,163.809,154.7Zm0,0" transform="translate(-156.692 -148.285)"/></g></svg>